<?xml version="1.0" encoding="UTF-8"?>
<svg id="Calque_2" data-name="Calque 2" xmlns="http://www.w3.org/2000/svg" viewBox="0 0 186.59 223.15">
  <defs>
    <style>
      .cls-1 {
        fill: #ff8552;
      }
    </style>
  </defs>
  <g id="Calque_1-2" data-name="Calque 1">
    <g>
      <g>
        <path class="cls-1" d="M33.25,190.12c.09,.23,.05,.75-.47,1.12l-15.83,11.44,15.04,11.91c.42,.33,.47,.79,.28,.98l-7.71,7.33c-.19,.19-.61,.51-1.21-.09l-11.81-12.19c-.05,1.4-.05,2.8-.05,4.11,0,1.96,.05,3.83,.05,5.65,0,.37-.33,.65-.65,.65l-9.29-.09c-.37,0-.65-.28-.65-.65-.37-2.29-.93-8.96-.93-14.57,0-7.7,.14-15.03,.56-20.45,.05-.37,.28-.61,.65-.65l11.91-1.73c.33-.05,.65,.28,.65,.61l-.05,.05c-.14,3.04-.7,6.82-1.12,10.93l15.64-12.51c.19-.14,.79-.14,.98,.23l4.02,7.94Z"/>
        <path class="cls-1" d="M60.84,220c0,.42-.37,.79-.79,.84l-7.66,.37h-.05c-.42,0-.7-.33-.75-.7l-.05-2.52c-1.45,1.4-3.31,2.29-5.88,2.29-7,0-11.63-5.18-11.63-13.4,0-7.75,5.56-12.89,11.77-12.89,2.15,0,4.11,.7,5.74,1.68l-.05-1.21c0-.42,.33-.75,.75-.79l8.78-.14c.42,0,.75,.33,.75,.75l-.93,25.73Zm-9.29-14.38c-.37-1.49-1.63-2.71-3.41-2.71-2.24,0-3.78,1.82-3.78,4.44s1.73,4.16,3.74,4.16c1.45,0,3.04-1.31,3.46-3.69v-2.19Z"/>
        <path class="cls-1" d="M83.02,193.76c0,.98-.33,7.1-.37,8.22,0,.23-.19,.37-.47,.42-5,.14-7.1,3.32-7.05,9.06,0,0,.05,3.69,.05,8.45,0,.42-.33,.75-.75,.75l-7.94,.19h-.05c-.37,0-.7-.28-.7-.7l-.84-25.35v-.05c0-.37,.28-.65,.65-.65h.05l8.03,.37c.61,0,.75,.14,.75,.65v1.12c0,.09,0,.19,.05,.19,0,0,.05-.05,.09-.14,1.63-2.29,4.72-3.04,6.82-3.04,.51,0,.93,.05,1.31,.09,.14,.05,.37,.14,.37,.37v.05Z"/>
        <path class="cls-1" d="M96.61,220.47c0,.37-.33,.65-.65,.65h-.05l-8.45-.23c-.42,0-.7-.33-.75-.7l-.61-22.93c0-.37,.28-.65,.65-.65l9.76,.14c.37,0,.7,.33,.7,.7l-.61,23.02Zm-3.88-25.91c-2.94,0-5.32-2.52-5.32-5.65s2.38-5.6,5.32-5.6,5.37,2.52,5.37,5.6-2.38,5.65-5.37,5.65Z"/>
        <path class="cls-1" d="M116.88,221.31c-2.1,0-4.25-.47-6.02-1.35l.05,.93c0,.51-.37,.93-.89,.93l-7.98,.28c-.47,0-.89-.37-.89-.89l-.19-37.03c0-.47,.42-.89,.89-.89l9.01-.42c.47,0,.89,.37,.84,.84l-.28,10.74c1.26-.51,2.85-1.07,4.76-1.07,6.49,0,12.09,5.51,12.09,14.15,0,9.48-5.42,13.77-11.39,13.77Zm-2.29-18.16c-2.19,0-3.46,2.43-3.46,4.62,0,3.41,1.59,5.04,3.46,5.04,2.19,0,3.6-1.92,3.6-5.42,0-2.66-1.35-4.25-3.6-4.25Z"/>
        <path class="cls-1" d="M144.52,221.59c-7.05,0-13.82-4.9-13.82-13.96s5-14.52,13.07-14.52c7.47,0,12.89,4.9,12.89,14.52,0,8.83-5.09,13.96-12.14,13.96Zm-.93-18.12c-2.33,0-3.55,1.91-3.55,4.39s1.68,4.02,3.69,4.02,3.36-1.73,3.36-4.29c0-2.43-1.59-4.11-3.5-4.11Z"/>
        <path class="cls-1" d="M185.7,221.31c-.05,.42-.37,.79-.79,.79h-.05l-8.22-.28c-.42,0-.79-.37-.79-.79v-1.12c-1.21,.61-2.66,1.03-4.25,1.03-9.53,0-12.56-6.68-12.56-17.14,0-4.06,.51-7.14,.79-8.54,.05-.23,.28-.37,.51-.37h.05l9.62,.75c.23,0,.47,.14,.47,.42v.09c-.33,1.82-.93,7.42-.93,10.79,0,4.76,1.21,6.49,3.17,6.49s3.13-1.26,3.17-4.53v-14.15c.05-.47,.37-.84,.79-.84l9.15-.47s0-.05,.05-.05c.37,0,.7,.33,.7,.75l-.89,27.17Z"/>
      </g>
      <path class="cls-1" d="M119.71,81.9c.67,.74,1.22,1.39,1.81,1.99,11.14,11.2,22.28,22.4,33.44,33.58,3.64,3.65,6.67,7.67,7.72,12.83,1.81,8.82-2.72,16.77-11.63,20.64-8.1,3.52-16.64,1.81-23.28-4.84-11.88-11.88-23.75-23.75-35.49-35.76-7.12-7.29-14.25-14.6-20.89-22.33-5.68-6.62-6.66-14.4-2.85-22.41,1.01-2.12,2.53-4.11,4.18-5.81,16.58-17.16,33.19-34.29,49.89-51.34,6.01-6.14,13.36-9.27,22.05-8.11,14.04,1.87,24.83,14.81,19.23,32.56-.97,3.06-2.88,6.09-5.1,8.44-12.31,13.03-24.85,25.84-37.31,38.73-.55,.57-1.09,1.14-1.75,1.83Z"/>
      <path class="cls-1" d="M54.11,73.39c0,17.19-.25,34.38,.09,51.57,.22,11.25-8.98,19.23-17.21,20.88-13.03,2.61-26.25-7.44-26.54-20.72-.29-13.19-.1-26.38-.11-39.57-.01-20.65,.03-41.31-.06-61.96-.03-6.84,2.06-12.66,7.12-17.35C28.19-3.76,44.73-1.44,51.63,11.05c1.61,2.91,2.41,6.05,2.41,9.38,.02,13.92,.04,27.85,.06,41.77,0,3.73,0,7.46,0,11.19h0Z"/>
    </g>
  </g>
</svg>