<svg id="logo_2" data-name="logo 2" xmlns="http://www.w3.org/2000/svg" width="71.291" height="101.366" viewBox="0 0 71.291 101.366">
  <text id="Karibou" transform="translate(0 96.366)" fill="#ff8552" font-size="17" font-family="PeachyKeenJF"><tspan x="0" y="0">Ka</tspan><tspan y="0" letter-spacing="-0.02em">r</tspan><tspan y="0">ibou</tspan></text>
  <path id="Tracé_7" data-name="Tracé 7" d="M359.677,306.224c.308.339.561.636.832.91q7.68,7.686,15.37,15.363a11.653,11.653,0,0,1,3.548,5.87c.832,4.035-1.25,7.672-5.345,9.443a9.359,9.359,0,0,1-10.7-2.214c-5.46-5.435-10.916-10.865-16.312-16.36-3.272-3.335-6.55-6.679-9.6-10.216a8.906,8.906,0,0,1-1.31-10.252,10.281,10.281,0,0,1,1.921-2.658q11.431-11.776,22.93-23.488a11.575,11.575,0,0,1,10.135-3.71c6.453.855,11.412,6.775,8.838,14.9a10.432,10.432,0,0,1-2.344,3.861c-5.658,5.961-11.421,11.822-17.148,17.719-.253.261-.5.522-.8.837Z" transform="translate(-309.386 -268.764)" fill="#ff8552"/>
  <path id="Tracé_8" data-name="Tracé 8" d="M299.285,302.29c0,7.864-.115,15.729.041,23.593.1,5.147-4.127,8.8-7.91,9.552-5.989,1.194-12.065-3.4-12.2-9.479-.133-6.034-.046-12.069-.051-18.1,0-9.447.014-18.9-.028-28.346a10.158,10.158,0,0,1,3.272-7.937,10.018,10.018,0,0,1,15.733,2.205,8.708,8.708,0,0,1,1.108,4.291q.014,9.552.028,19.109v5.119h0Z" transform="translate(-279.14 -268.719)" fill="#ff8552"/>
</svg>
