<?xml version="1.0" encoding="UTF-8"?><svg id="Calque_2" xmlns="http://www.w3.org/2000/svg" viewBox="0 0 276.43 71.79"><defs><style>.cls-1{fill:#fff;}.cls-2{fill:#cce9f3;}</style></defs><g id="Graphic"><g><path class="cls-1" d="M231.38,26.74c-8.11,0-15.71,2.15-22.29,5.91C196.28,13,174.11,0,148.9,0c-23.29,0-43.99,11.1-57.11,28.29-3.73-1-7.66-1.55-11.71-1.55-18.13,0-33.75,10.71-40.89,26.15-4.13-3.29-9.35-5.26-15.04-5.26C10.81,47.64,0,58.45,0,71.79H276.43c0-24.88-20.17-45.05-45.05-45.05Z"/><path class="cls-2" d="M239.31,27.45c5.15,3.85,9.46,8.78,12.57,14.45,5.36,9.75-1.9,21.66-13.03,21.66H1.44c-.93,2.57-1.44,5.34-1.44,8.22H276.43c0-22.17-16.02-40.59-37.12-44.34Z"/><path class="cls-2" d="M99.29,38.24c1.27,5.39-1.53,10.78-6.4,12.96,5.65-.53,10.14-5.22,10.27-11.04,.15-6.27-4.82-11.47-11.09-11.62h0c3.51,1.25,6.3,5.8,7.22,9.7Z"/><path class="cls-2" d="M198.62,48.79c-7.72,4.92-17.66,3.5-23.72-2.91,3.92,8.53,13.69,12.97,22.84,10,9.87-3.2,15.27-13.79,12.07-23.66h0c-.03,6.17-5.61,13-11.2,16.57Z"/></g></g></svg>