<?xml version="1.0" encoding="UTF-8"?><svg id="Calque_2" xmlns="http://www.w3.org/2000/svg" viewBox="0 0 285.62 92.91"><defs><style>.cls-1{fill:#fff;}.cls-2{fill:#cce9f3;}</style></defs><g id="Graphic"><g><path class="cls-1" d="M92.91,0c30.15,0,56.94,14.36,73.91,36.61,4.83-1.3,9.91-2,15.15-2,23.46,0,43.67,13.87,52.92,33.84,5.34-4.26,12.1-6.81,19.46-6.81,17.26,0,31.26,14,31.26,31.26H0C0,41.6,41.6,0,92.91,0Z"/><path class="cls-2" d="M83.8,.45c-17.99,10.66-32.07,27.21-39.59,46.99-6.05,15.93,5.66,33,22.7,33h216.12c1.67,3.82,2.6,8.04,2.6,12.48H0C0,44.68,36.76,5.03,83.8,.45Z"/><path class="cls-2" d="M155.14,49.5c-1.64,6.97,1.98,13.95,8.28,16.77-7.31-.69-13.12-6.76-13.29-14.29-.19-8.12,6.24-14.85,14.35-15.04h0c-4.54,1.62-8.15,7.51-9.34,12.55Z"/></g></g></svg>