<svg xmlns="http://www.w3.org/2000/svg" width="186.105" height="83.107" viewBox="0 0 186.105 83.107">
  <g id="Groupe_158" data-name="Groupe 158" transform="translate(-93.197 -621.227)">
    <rect id="Rectangle_1893" data-name="Rectangle 1893" width="186.105" height="83.107" transform="translate(93.197 621.227)" fill="#ff8552"/>
    <rect id="Rectangle_1894" data-name="Rectangle 1894" width="124.489" height="57.844" transform="translate(124.634 646.49)" fill="#c3653e"/>
    <rect id="Rectangle_1915" data-name="Rectangle 1915" width="1.257" height="57.844" transform="translate(163.615 646.49)" fill="#6e8ebd"/>
    <rect id="Rectangle_1916" data-name="Rectangle 1916" width="1.257" height="57.844" transform="translate(207.627 646.49)" fill="#6e8ebd"/>
    <rect id="Rectangle_1919" data-name="Rectangle 1919" width="31.437" height="7.545" transform="translate(93.197 685.472)" fill="#b3b3b3"/>
    <rect id="Rectangle_1920" data-name="Rectangle 1920" width="30.179" height="7.545" transform="translate(249.123 685.472)" fill="#b3b3b3"/>
    <rect id="Rectangle_1921" data-name="Rectangle 1921" width="90.538" height="15.09" transform="translate(140.981 623.227)" fill="#e6e6e6"/>
    <g id="Groupe_144" data-name="Groupe 144" transform="translate(157.328 627.628)">
      <rect id="Rectangle_1922" data-name="Rectangle 1922" width="22.634" height="7.545" fill="#b3b3b3"/>
      <rect id="Rectangle_1923" data-name="Rectangle 1923" width="10.06" height="7.545" transform="translate(26.407)" fill="#b3b3b3"/>
      <rect id="Rectangle_1924" data-name="Rectangle 1924" width="17.605" height="7.545" transform="translate(40.239)" fill="#b3b3b3"/>
    </g>
    <rect id="Rectangle_1925" data-name="Rectangle 1925" width="17.605" height="17.605" transform="translate(254.153 652.777)" fill="#e6e6e6"/>
    <rect id="Rectangle_1926" data-name="Rectangle 1926" width="11.317" height="2.515" transform="translate(257.926 655.292)" fill="#b3b3b3"/>
    <rect id="Rectangle_1928" data-name="Rectangle 1928" width="3.873" height="2.515" transform="translate(257.926 660.322)" fill="#b3b3b3"/>
    <rect id="Rectangle_1929" data-name="Rectangle 1929" width="5.03" height="2.515" transform="translate(257.926 665.352)" fill="#b3b3b3"/>
    <rect id="Rectangle_1936" data-name="Rectangle 1936" width="2.515" height="10.06" transform="translate(203.854 674.154)" fill="#b3b3b3"/>
    <rect id="Rectangle_1937" data-name="Rectangle 1937" width="2.515" height="10.06" transform="translate(210.142 674.154)" fill="#b3b3b3"/>
    <rect id="Rectangle_1938" data-name="Rectangle 1938" width="2.515" height="10.06" transform="translate(159.843 674.154)" fill="#b3b3b3"/>
    <rect id="Rectangle_1973" data-name="Rectangle 1973" width="5.03" height="57.844" transform="translate(132.179 646.49)" fill="#fff" opacity="0.1"/>
    <rect id="Rectangle_1974" data-name="Rectangle 1974" width="2.515" height="57.844" transform="translate(140.981 646.49)" fill="#fff" opacity="0.1"/>
    <rect id="Rectangle_1975" data-name="Rectangle 1975" width="5.03" height="57.844" transform="translate(172.418 646.49)" fill="#fff" opacity="0.1"/>
    <rect id="Rectangle_1976" data-name="Rectangle 1976" width="2.515" height="57.844" transform="translate(181.22 646.49)" fill="#fff" opacity="0.1"/>
    <rect id="Rectangle_1977" data-name="Rectangle 1977" width="5.03" height="57.844" transform="translate(215.172 646.49)" fill="#fff" opacity="0.1"/>
    <rect id="Rectangle_1978" data-name="Rectangle 1978" width="2.515" height="57.844" transform="translate(223.974 646.49)" fill="#fff" opacity="0.1"/>
    <rect id="Rectangle_1979" data-name="Rectangle 1979" width="124.489" height="5.03" transform="translate(124.634 643.975)" fill="#ff7443"/>
  </g>
</svg>
