<svg id="Groupe_137" data-name="Groupe 137" xmlns="http://www.w3.org/2000/svg" width="92.367" height="129.624" viewBox="0 0 92.367 129.624">
  <g id="Groupe_136" data-name="Groupe 136" transform="translate(0 0)">
    <circle id="Ellipse_112" data-name="Ellipse 112" cx="32.656" cy="32.656" r="32.656" transform="translate(0 46.183) rotate(-45)" fill="#8da628"/>
    <path id="Tracé_3206" data-name="Tracé 3206" d="M258.722,290.484H254.17l1.61-81.748.666-5.7Z" transform="translate(-210.119 -162.558)" fill="#a67609"/>
    <path id="Tracé_3207" data-name="Tracé 3207" d="M256.23,216.081l6.727-4.917L268.2,200.79v.83l-4.5,10.374-7.469,6.4Z" transform="translate(-209.589 -163.137)" fill="#a67609"/>
    <path id="Tracé_3208" data-name="Tracé 3208" d="M256.843,223.209l-8.174-5.759v.842l8.174,6.816Z" transform="translate(-211.535 -158.847)" fill="#a67609"/>
  </g>
  <path id="Tracé_3209" data-name="Tracé 3209" d="M279.795,272.928c0,.943-8.853,1.7-19.767,1.7s-19.767-.755-19.767-1.7,8.853-1.7,19.767-1.7S279.795,271.984,279.795,272.928Z" transform="translate(-213.701 -145.001)" fill="#45423f" opacity="0.2"/>
  <path id="Tracé_3210" data-name="Tracé 3210" d="M256.471,244.641l-8.161-4.791L256.5,243.7Z" transform="translate(-211.628 -153.08)" fill="#b07e09"/>
</svg>
